<svg width="283" height="62" viewBox="0 0 283 62" fill="none" xmlns="http://www.w3.org/2000/svg">
<path d="M1 26C1 12.1929 12.1451 1.00546 25.9522 1.05065C67.2466 1.1858 151.263 1.68154 212 3.5C224.962 3.8881 241.367 3.34632 255.037 2.66912C269.591 1.94814 282 13.4491 282 28.0204V35.4909C282 49.4952 270.506 60.7723 256.504 60.5218C215.935 59.7961 135.322 58.5 77 58.5C61.9854 58.5 42.725 59.1391 27.3507 59.771C13.026 60.3598 1 48.9505 1 34.6138V26Z" fill="white" stroke="#1C1C1D" stroke-width="2"/>
<path d="M49.3726 38L49.3526 29.6L45.2326 36.52H43.7726L39.6726 29.78V38H36.6326V24H39.3126L44.5526 32.7L49.7126 24H52.3726L52.4126 38H49.3726ZM61.2592 38.16C60.1259 38.16 59.1059 37.9267 58.1992 37.46C57.3059 36.98 56.6059 36.32 56.0992 35.48C55.5925 34.64 55.3392 33.6867 55.3392 32.62C55.3392 31.5533 55.5925 30.6 56.0992 29.76C56.6059 28.92 57.3059 28.2667 58.1992 27.8C59.1059 27.32 60.1259 27.08 61.2592 27.08C62.3925 27.08 63.4059 27.32 64.2992 27.8C65.1925 28.2667 65.8925 28.92 66.3992 29.76C66.9059 30.6 67.1592 31.5533 67.1592 32.62C67.1592 33.6867 66.9059 34.64 66.3992 35.48C65.8925 36.32 65.1925 36.98 64.2992 37.46C63.4059 37.9267 62.3925 38.16 61.2592 38.16ZM61.2592 35.6C62.0592 35.6 62.7125 35.3333 63.2192 34.8C63.7392 34.2533 63.9992 33.5267 63.9992 32.62C63.9992 31.7133 63.7392 30.9933 63.2192 30.46C62.7125 29.9133 62.0592 29.64 61.2592 29.64C60.4592 29.64 59.7992 29.9133 59.2792 30.46C58.7592 30.9933 58.4992 31.7133 58.4992 32.62C58.4992 33.5267 58.7592 34.2533 59.2792 34.8C59.7992 35.3333 60.4592 35.6 61.2592 35.6ZM76.4097 27.08C77.743 27.08 78.8163 27.48 79.6297 28.28C80.4563 29.08 80.8697 30.2667 80.8697 31.84V38H77.7497V32.32C77.7497 31.4667 77.563 30.8333 77.1897 30.42C76.8163 29.9933 76.2763 29.78 75.5697 29.78C74.783 29.78 74.1563 30.0267 73.6897 30.52C73.223 31 72.9897 31.72 72.9897 32.68V38H69.8697V27.24H72.8497V28.5C73.263 28.0467 73.7763 27.7 74.3897 27.46C75.003 27.2067 75.6763 27.08 76.4097 27.08ZM91.2628 37.48C90.9561 37.7067 90.5761 37.88 90.1228 38C89.6828 38.1067 89.2161 38.16 88.7228 38.16C87.4428 38.16 86.4495 37.8333 85.7428 37.18C85.0495 36.5267 84.7028 35.5667 84.7028 34.3V29.88H83.0428V27.48H84.7028V24.86H87.8228V27.48H90.5028V29.88H87.8228V34.26C87.8228 34.7133 87.9361 35.0667 88.1628 35.32C88.4028 35.56 88.7361 35.68 89.1628 35.68C89.6561 35.68 90.0761 35.5467 90.4228 35.28L91.2628 37.48ZM100.179 27.08C101.513 27.08 102.586 27.48 103.399 28.28C104.226 29.08 104.639 30.2667 104.639 31.84V38H101.519V32.32C101.519 31.4667 101.333 30.8333 100.959 30.42C100.586 29.9933 100.046 29.78 99.3392 29.78C98.5525 29.78 97.9259 30.0267 97.4592 30.52C96.9925 31 96.7592 31.72 96.7592 32.68V38H93.6392V23.16H96.7592V28.36C97.1725 27.9467 97.6725 27.6333 98.2592 27.42C98.8459 27.1933 99.4859 27.08 100.179 27.08Z" fill="#1C1C1D"/>
<path d="M141.511 1.58824L141.379 59.8235" stroke="#1C1C1D" stroke-width="2"/>
<path d="M191.534 33.04V38H188.294V33L182.874 24H186.314L190.054 30.22L193.794 24H196.974L191.534 33.04ZM208.084 32.66C208.084 32.7 208.064 32.98 208.024 33.5H199.884C200.03 34.1667 200.377 34.6933 200.924 35.08C201.47 35.4667 202.15 35.66 202.964 35.66C203.524 35.66 204.017 35.58 204.444 35.42C204.884 35.2467 205.29 34.98 205.664 34.62L207.324 36.42C206.31 37.58 204.83 38.16 202.884 38.16C201.67 38.16 200.597 37.9267 199.664 37.46C198.73 36.98 198.01 36.32 197.504 35.48C196.997 34.64 196.744 33.6867 196.744 32.62C196.744 31.5667 196.99 30.62 197.484 29.78C197.99 28.9267 198.677 28.2667 199.544 27.8C200.424 27.32 201.404 27.08 202.484 27.08C203.537 27.08 204.49 27.3067 205.344 27.76C206.197 28.2133 206.864 28.8667 207.344 29.72C207.837 30.56 208.084 31.54 208.084 32.66ZM202.504 29.44C201.797 29.44 201.204 29.64 200.724 30.04C200.244 30.44 199.95 30.9867 199.844 31.68H205.144C205.037 31 204.744 30.46 204.264 30.06C203.784 29.6467 203.197 29.44 202.504 29.44ZM214.833 27.08C216.499 27.08 217.779 27.48 218.673 28.28C219.566 29.0667 220.013 30.26 220.013 31.86V38H217.093V36.66C216.506 37.66 215.413 38.16 213.813 38.16C212.986 38.16 212.266 38.02 211.653 37.74C211.053 37.46 210.593 37.0733 210.273 36.58C209.953 36.0867 209.793 35.5267 209.793 34.9C209.793 33.9 210.166 33.1133 210.913 32.54C211.673 31.9667 212.839 31.68 214.413 31.68H216.893C216.893 31 216.686 30.48 216.273 30.12C215.859 29.7467 215.239 29.56 214.413 29.56C213.839 29.56 213.273 29.6533 212.713 29.84C212.166 30.0133 211.699 30.2533 211.313 30.56L210.193 28.38C210.779 27.9667 211.479 27.6467 212.293 27.42C213.119 27.1933 213.966 27.08 214.833 27.08ZM214.593 36.06C215.126 36.06 215.599 35.94 216.013 35.7C216.426 35.4467 216.719 35.08 216.893 34.6V33.5H214.753C213.473 33.5 212.833 33.92 212.833 34.76C212.833 35.16 212.986 35.48 213.293 35.72C213.613 35.9467 214.046 36.06 214.593 36.06ZM226.441 28.66C226.815 28.14 227.315 27.7467 227.941 27.48C228.581 27.2133 229.315 27.08 230.141 27.08V29.96C229.795 29.9333 229.561 29.92 229.441 29.92C228.548 29.92 227.848 30.1733 227.341 30.68C226.835 31.1733 226.581 31.92 226.581 32.92V38H223.461V27.24H226.441V28.66ZM236.281 38.16C235.387 38.16 234.514 38.0533 233.661 37.84C232.807 37.6133 232.127 37.3333 231.621 37L232.661 34.76C233.141 35.0667 233.721 35.32 234.401 35.52C235.081 35.7067 235.747 35.8 236.401 35.8C237.721 35.8 238.381 35.4733 238.381 34.82C238.381 34.5133 238.201 34.2933 237.841 34.16C237.481 34.0267 236.927 33.9133 236.181 33.82C235.301 33.6867 234.574 33.5333 234.001 33.36C233.427 33.1867 232.927 32.88 232.501 32.44C232.087 32 231.881 31.3733 231.881 30.56C231.881 29.88 232.074 29.28 232.461 28.76C232.861 28.2267 233.434 27.8133 234.181 27.52C234.941 27.2267 235.834 27.08 236.861 27.08C237.621 27.08 238.374 27.1667 239.121 27.34C239.881 27.5 240.507 27.7267 241.001 28.02L239.961 30.24C239.014 29.7067 237.981 29.44 236.861 29.44C236.194 29.44 235.694 29.5333 235.361 29.72C235.027 29.9067 234.861 30.1467 234.861 30.44C234.861 30.7733 235.041 31.0067 235.401 31.14C235.761 31.2733 236.334 31.4 237.121 31.52C238.001 31.6667 238.721 31.8267 239.281 32C239.841 32.16 240.327 32.46 240.741 32.9C241.154 33.34 241.361 33.9533 241.361 34.74C241.361 35.4067 241.161 36 240.761 36.52C240.361 37.04 239.774 37.4467 239.001 37.74C238.241 38.02 237.334 38.16 236.281 38.16Z" fill="#1C1C1D"/>
</svg>
